<?xml version="1.0" encoding="utf-8"?>
<!-- Generator: Adobe Illustrator 16.0.0, SVG Export Plug-In . SVG Version: 6.00 Build 0)  -->
<!DOCTYPE svg PUBLIC "-//W3C//DTD SVG 1.1//EN" "http://www.w3.org/Graphics/SVG/1.1/DTD/svg11.dtd">
<svg version="1.1" id="Layer_1" xmlns="http://www.w3.org/2000/svg" xmlns:xlink="http://www.w3.org/1999/xlink" x="0px" y="0px"
	 width="38px" height="34px" viewBox="0 0 38 34" enable-background="new 0 0 38 34" xml:space="preserve">
<g>
	<path fill="#FFFFFF" d="M5.5,16.5h28v-10c0-1.429-1.574-3-3-3h-22c-2,0-3,1.571-3,3v1l-4,7h4V16.5z M10.5,7.5h18v1h-18V7.5z
		 M10.5,10.5h18v1h-18V10.5z M10.5,13.5h18v1h-18V13.5z"/>
	<path fill="#FFFFFF" d="M33.5,18.5v-1h-28v10c0,1.428,1.569,3,3,3h22c1.426,0,3-1.572,3-3v-3H38L33.5,18.5z M28.5,26.5h-18v-1h18
		V26.5z M28.5,23.5h-18v-1h18V23.5z M28.5,20.5h-18v-1h18V20.5z"/>
</g>
</svg>
