<?xml version="1.0" encoding="utf-8"?>
<!-- Generator: Adobe Illustrator 16.0.0, SVG Export Plug-In . SVG Version: 6.00 Build 0)  -->
<!DOCTYPE svg PUBLIC "-//W3C//DTD SVG 1.1//EN" "http://www.w3.org/Graphics/SVG/1.1/DTD/svg11.dtd">
<svg version="1.1" id="Layer_1" xmlns="http://www.w3.org/2000/svg" xmlns:xlink="http://www.w3.org/1999/xlink" x="0px" y="0px"
	 width="38px" height="34px" viewBox="0 0 38 34" enable-background="new 0 0 38 34" xml:space="preserve">
<polygon fill="#FFFFFF" points="6.5,20.5 6.5,28.5 10.5,28.5 10.5,16.5 "/>
<polygon fill="#FFFFFF" points="24.5,20.5 21.5,17.5 21.5,28.5 25.5,28.5 25.5,18.5 "/>
<g>
	<polygon fill="#FFFFFF" points="11.5,15.5 11.5,28.5 15.5,28.5 15.5,11.5 	"/>
	<polygon fill="#FFFFFF" points="16.5,12.5 16.5,28.5 20.5,28.5 20.5,16.5 	"/>
</g>
<polygon fill="#FFFFFF" points="26.5,17.5 26.5,28.5 30.5,28.5 30.5,18.5 27.5,16.5 "/>
<polygon fill="#FFFFFF" points="32.627,6.991 24.105,8.346 26.91,11.149 24.43,13.628 14.947,5.5 5.5,14.949 7.416,16.864 
	15.089,9.19 24.572,17.318 28.826,13.065 31.271,15.512 "/>
</svg>
