<?xml version="1.0" encoding="utf-8"?>
<!-- Generator: Adobe Illustrator 16.0.0, SVG Export Plug-In . SVG Version: 6.00 Build 0)  -->
<!DOCTYPE svg PUBLIC "-//W3C//DTD SVG 1.1//EN" "http://www.w3.org/Graphics/SVG/1.1/DTD/svg11.dtd">
<svg version="1.1" id="Layer_1" xmlns="http://www.w3.org/2000/svg" xmlns:xlink="http://www.w3.org/1999/xlink" x="0px" y="0px"
	 width="38px" height="34px" viewBox="0 0 38 34" enable-background="new 0 0 38 34" xml:space="preserve">
<path fill="#858E95" d="M33,24.209v-4.063c1.435-0.331,2.507-1.611,2.507-3.146c0-1.787-1.448-3.234-3.235-3.234
	c-0.855,0-1.629,0.338-2.207,0.88l-8.281-5.914c0.48-0.564,0.781-1.286,0.781-2.085c0-1.787-1.448-3.236-3.236-3.236
	c-1.787,0-3.235,1.449-3.235,3.236c0,0.54,0.145,1.04,0.378,1.487l-8.368,6.67c-0.591-0.635-1.428-1.039-2.364-1.039
	c-1.787,0-3.235,1.447-3.235,3.234s1.448,3.236,3.235,3.236S8.975,18.787,8.975,17c0-0.38-0.078-0.74-0.198-1.078l8.511-6.784
	c0.477,0.391,1.064,0.644,1.712,0.71v6.539c-1.631,0.167-2.907,1.526-2.907,3.203c0,1.787,1.448,3.234,3.235,3.234
	c1.788,0,3.236-1.447,3.236-3.234c0-1.559-1.1-2.855-2.564-3.165V9.809c0.361-0.076,0.695-0.221,1.002-0.407l8.452,6.037
	c-0.258,0.465-0.418,0.992-0.418,1.561c0,1.694,1.306,3.068,2.964,3.209v3.938c-1.658,0.141-2.964,1.515-2.964,3.209
	c0,1.787,1.448,3.234,3.235,3.234s3.235-1.447,3.235-3.234C35.507,25.82,34.435,24.54,33,24.209z"/>
</svg>
