<?xml version="1.0" encoding="utf-8"?>
<!-- Generator: Adobe Illustrator 16.0.0, SVG Export Plug-In . SVG Version: 6.00 Build 0)  -->
<!DOCTYPE svg PUBLIC "-//W3C//DTD SVG 1.1//EN" "http://www.w3.org/Graphics/SVG/1.1/DTD/svg11.dtd">
<svg version="1.1" id="Layer_1" xmlns="http://www.w3.org/2000/svg" xmlns:xlink="http://www.w3.org/1999/xlink" x="0px" y="0px"
	 width="38px" height="34px" viewBox="0 0 38 34" enable-background="new 0 0 38 34" xml:space="preserve">
<path fill-rule="evenodd" clip-rule="evenodd" fill="#FFFFFF" d="M22.829,25.41c0.872-0.868,1.653-2.036,2.296-3.41h-3.55
	c-0.228,1.091-1.192,1.908-2.35,1.908c-1.325,0-2.402-1.073-2.402-2.403c0-1.326,1.077-2.399,2.402-2.399
	c1.154,0,2.115,0.812,2.346,1.895h3.984c0.387-0.869,1.23-1.743,1.444-5.853v2.892C27,19.123,27.879,20,28.963,20h1.074
	C31.121,20,32,19.123,32,18.039v-5.078C32,11.879,31.121,11,30.037,11H30v-0.002C30,6.457,24.715,2,19.33,2h-0.116
	C13.964,2,9,6.373,9,10.998V11H8.94C7.856,11,7,11.875,7,12.959v5.137C7,19.18,7.856,20,8.94,20h1.249C11.274,20,12,19.18,12,18.096
	v-1.32c0.663,3.399,2.141,6.806,4.042,8.702L6,30.484V33h27v-2.563L22.829,25.41z M11.732,11.904C11.429,11.361,10.884,11,10.189,11
	H10v-0.002C10,6.887,14.478,3,19.214,3h0.116C24.12,3,29,7.037,29,10.998V11h-0.037c-0.986,0-1.795,0.729-1.934,1.676
	C26.802,9.091,23.533,6,19.524,6h-0.384C15.423,6,12.342,8.659,11.732,11.904z"/>
</svg>
